{"title":"Ave María (1999) Dvrip-Xvid","uid":8683434,"size":1468510208,"categoryP":"video","categoryS":"movies","magnet":"?xt=urn:btih:b694182c47e686e7773ce47063836d615780ecd4&amp;dn=Ave+Mar%26iacute%3Ba+%281999%29+Dvrip-Xvid&amp;tr=udp%3A%2F%2Ftracker.openbittorrent.com%3A80&amp;tr=udp%3A%2F%2Fopen.demonii.com%3A1337&amp;tr=udp%3A%2F%2Ftracker.coppersurfer.tk%3A6969&amp;tr=udp%3A%2F%2Fexodus.desync.com%3A6969","seeders":0,"leechers":3,"uploader":null,"files":1,"time":1373745250,"description":"Ave.Maria.1999.DVDRIP.SPANISH.AC3-5.1.XViD.\n\nFormat                                   : AVI\nFormat/Info                              : Audio Video Interleave\nFile size                                : 1.37 GiB\nDuration                                 : 1h 35mn\nOverall bit rate                         : 2 050 Kbps\nWriting application                      : VirtualDubMod 1.5.4.1 (build 2178/release)\nWriting library                          : VirtualDubMod build 2178/release\n\nVideo\nID                                       : 0\nFormat                                   : MPEG-4 Visual\nFormat profile                           : Advanced Simple@L5\nFormat settings, BVOP                    : No\nFormat settings, QPel                    : No\nFormat settings, GMC                     : No warppoints\nFormat settings, Matrix                  : Custom\nCodec ID                                 : XVID\nCodec ID/Hint                            : XviD\nDuration                                 : 1h 35mn\nBit rate                                 : 1 787 Kbps\nWidth                                    : 704 pixels\nHeight                                   : 448 pixels\nDisplay aspect ratio                     : 1.571\nFrame rate                               : 25.000 fps\nColor space                              : YUV\nChroma subsampling                       : 4:2:0\nBit depth                                : 8 bits\nScan type                                : Progressive\nCompression mode                         : Lossy\nBits/(Pixel*Frame)                       : 0.227\nStream size                              : 1.19 GiB (87%)\nWriting library                          : XviD 1.3.0.dev55\n\nAudio\nID                                       : 1\nFormat                                   : AC-3\nFormat/Info                              : Audio Coding 3\nMode extension                           : CM (complete main)\nFormat settings, Endianness              : Big\nCodec ID                                 : 2000\nDuration                                 : 1h 35mn\nBit rate mode                            : Constant\nBit rate                                 : 256 Kbps\nChannel(s)                               : 2 channels\nChannel positions                        : Front: L R\nSampling rate                            : 48.0 KHz\nBit depth                                : 16 bits\nCompression mode                         : Lossy\nStream size                              : 175 MiB (12%)\nAlignment                                : Split accross interleaves\nInterleave, duration                     : 96 ms (2.40 video frames)\nInterleave, preload duration             : 96 ms\nLanguage                                 : Espanol\n","torrent":{"xt":"urn:btih:b694182c47e686e7773ce47063836d615780ecd4","amp;dn":"Ave+Mar%26iacute%3Ba+%281999%29+Dvrip-Xvid","amp;tr":["udp%3A%2F%2Ftracker.openbittorrent.com%3A80","udp%3A%2F%2Fopen.demonii.com%3A1337","udp%3A%2F%2Ftracker.coppersurfer.tk%3A6969","udp%3A%2F%2Fexodus.desync.com%3A6969"],"infoHash":"b694182c47e686e7773ce47063836d615780ecd4","infoHashBuffer":{"type":"Buffer","data":[182,148,24,44,71,230,134,231,119,60,228,112,99,131,109,97,87,128,236,212]},"announce":[],"urlList":[]}}